<svg width="75" height="23" viewBox="0 0 75 23" fill="none" xmlns="http://www.w3.org/2000/svg">
<g id="Group 2147227058">
<path id="Vector" d="M9.2433 9.32799H4.62165V5.07568H8.34218C8.83892 5.07568 9.2433 4.68455 9.2433 4.20408V0.605469H13.6397V5.07568C13.6397 7.42463 11.6718 9.32799 9.2433 9.32799ZM4.62165 9.76379H0V14.0161H3.72053C4.21727 14.0161 4.62165 14.4072 4.62165 14.8877V18.4863H9.01802V14.0161C9.01802 11.6671 7.05019 9.76379 4.62165 9.76379ZM19.3877 9.54589C18.891 9.54589 18.4866 9.15476 18.4866 8.67429V5.07568H14.0902V9.54589C14.0902 11.8948 16.0581 13.7982 18.4866 13.7982H23.1083V9.54589H19.3877ZM9.46859 18.4863V22.9565H13.865V19.3579C13.865 18.8774 14.2693 18.4863 14.7661 18.4863H18.4866V14.234H13.865C11.4364 14.234 9.46859 16.1373 9.46859 18.4863Z" fill="#F0529C"/>
<path id="Vector_2" d="M52.8847 3.63021H48.5064V0.604671H52.8847V3.62912V3.63021ZM49.4785 6.15021H46.8371V9.32719H49.1316C49.5145 9.32719 49.8265 9.62789 49.8265 9.99832V22.9546H53.3015V9.7619C53.3015 7.42057 51.7381 6.14912 49.4796 6.14912L49.4785 6.15021ZM38.879 0.604671L47.4622 22.9557H43.8138L41.5339 17.0234H30.8038L28.5239 22.9557H24.9104L33.4936 0.604671H38.8801H38.879ZM40.4627 14.2332L36.1688 3.05822L31.875 14.2332H40.4616H40.4627ZM61.495 20.1666L68.5486 14.7888C72.6487 11.6631 74.4555 9.47863 74.4555 6.48687C74.4555 3.32297 72.4054 0 66.2203 0C58.7387 0 56.282 4.85698 56.282 9.32719H60.0352C60.0352 5.29278 61.8802 2.85666 66.2203 2.85666C69.417 2.85666 70.7034 4.65324 70.7034 6.52064C70.7034 8.20065 70.1819 9.34353 68.1667 10.9233L56.3518 20.1666V22.9557H74.8734V20.1666H61.495Z" fill="#F0529C"/>
</g>
</svg>
